<svg width="1378" height="352" viewBox="0 0 1378 352" fill="none" xmlns="http://www.w3.org/2000/svg">
<g filter="url(#filter0_d_120_2)">
<path d="M366.1 183.932H311.607L311.314 155.514H358.043C366.051 155.514 372.74 154.391 378.111 152.145C383.482 149.898 387.535 146.627 390.27 142.33C393.102 138.033 394.518 132.809 394.518 126.656C394.518 119.82 393.199 114.254 390.562 109.957C388.023 105.66 384.02 102.535 378.551 100.582C373.082 98.5312 366.148 97.5059 357.75 97.5059H324.645V279H284.361V65.7188H357.75C369.859 65.7188 380.65 66.8906 390.123 69.2344C399.693 71.4805 407.799 74.9961 414.439 79.7812C421.08 84.5664 426.109 90.5723 429.527 97.7988C433.043 105.025 434.801 113.619 434.801 123.58C434.801 132.369 432.75 140.475 428.648 147.896C424.645 155.221 418.443 161.178 410.045 165.768C401.744 170.357 391.197 172.994 378.404 173.678L366.1 183.932ZM364.342 279H299.742L316.588 247.359H364.342C372.35 247.359 378.941 246.041 384.117 243.404C389.391 240.768 393.297 237.154 395.836 232.564C398.473 227.877 399.791 222.506 399.791 216.451C399.791 209.811 398.619 204.049 396.275 199.166C394.029 194.283 390.416 190.523 385.436 187.887C380.553 185.25 374.107 183.932 366.1 183.932H324.205L324.498 155.514H377.818L387.047 166.5C399.352 166.598 409.361 169.039 417.076 173.824C424.889 178.609 430.65 184.762 434.361 192.281C438.072 199.801 439.928 207.906 439.928 216.598C439.928 230.27 436.949 241.744 430.992 251.021C425.133 260.299 416.539 267.281 405.211 271.969C393.98 276.656 380.357 279 364.342 279ZM512.877 120.504V279H474.059V120.504H512.877ZM471.422 79.0488C471.422 73.2871 473.375 68.502 477.281 64.6934C481.285 60.8848 486.656 58.9805 493.395 58.9805C500.133 58.9805 505.455 60.8848 509.361 64.6934C513.365 68.502 515.367 73.2871 515.367 79.0488C515.367 84.7129 513.365 89.4492 509.361 93.2578C505.455 97.0664 500.133 98.9707 493.395 98.9707C486.656 98.9707 481.285 97.0664 477.281 93.2578C473.375 89.4492 471.422 84.7129 471.422 79.0488ZM650.572 120.504H685.729V274.166C685.729 288.521 682.604 300.68 676.354 310.641C670.201 320.699 661.559 328.316 650.426 333.492C639.293 338.766 626.354 341.402 611.607 341.402C605.26 341.402 598.375 340.523 590.953 338.766C583.629 337.008 576.549 334.225 569.713 330.416C562.975 326.705 557.359 321.871 552.867 315.914L570.299 293.062C575.572 299.215 581.529 303.854 588.17 306.979C594.811 310.201 601.988 311.812 609.703 311.812C617.516 311.812 624.156 310.348 629.625 307.418C635.191 304.586 639.439 300.387 642.369 294.82C645.396 289.352 646.91 282.613 646.91 274.605V156.686L650.572 120.504ZM543.492 201.656V198.58C543.492 186.471 544.957 175.484 547.887 165.621C550.816 155.66 555.016 147.115 560.484 139.986C566.051 132.857 572.74 127.34 580.553 123.434C588.463 119.527 597.35 117.574 607.213 117.574C617.662 117.574 626.451 119.479 633.58 123.287C640.807 127.096 646.764 132.516 651.451 139.547C656.236 146.578 659.947 154.928 662.584 164.596C665.318 174.166 667.418 184.713 668.883 196.236V204.586C667.516 215.816 665.318 226.119 662.291 235.494C659.361 244.869 655.455 253.072 650.572 260.104C645.689 267.037 639.635 272.408 632.408 276.217C625.182 280.025 616.686 281.93 606.92 281.93C597.154 281.93 588.365 279.928 580.553 275.924C572.74 271.92 566.051 266.305 560.484 259.078C555.016 251.852 550.816 243.355 547.887 233.59C544.957 223.824 543.492 213.18 543.492 201.656ZM582.164 198.58V201.656C582.164 208.492 582.848 214.889 584.215 220.846C585.582 226.803 587.682 232.076 590.514 236.666C593.346 241.158 596.91 244.674 601.207 247.213C605.504 249.752 610.631 251.021 616.588 251.021C624.596 251.021 631.139 249.361 636.217 246.041C641.393 242.623 645.299 237.984 647.936 232.125C650.67 226.168 652.428 219.479 653.209 212.057V189.059C652.721 183.199 651.646 177.779 649.986 172.799C648.424 167.818 646.227 163.521 643.395 159.908C640.562 156.295 636.949 153.463 632.555 151.412C628.16 149.361 622.936 148.336 616.881 148.336C611.021 148.336 605.895 149.654 601.5 152.291C597.105 154.83 593.492 158.395 590.66 162.984C587.828 167.574 585.68 172.896 584.215 178.951C582.848 185.006 582.164 191.549 582.164 198.58Z" fill="#000303"/>
<path d="M787.242 279H741.246L741.539 247.359H787.242C799.645 247.359 810.045 244.625 818.443 239.156C826.842 233.59 833.189 225.631 837.486 215.279C841.783 204.83 843.932 192.33 843.932 177.779V166.793C843.932 155.562 842.711 145.65 840.27 137.057C837.828 128.463 834.215 121.236 829.43 115.377C824.742 109.518 818.932 105.074 811.998 102.047C805.064 99.0195 797.105 97.5059 788.121 97.5059H740.367V65.7188H788.121C802.379 65.7188 815.367 68.1113 827.086 72.8965C838.902 77.6816 849.107 84.5664 857.701 93.5508C866.393 102.438 873.033 113.082 877.623 125.484C882.311 137.887 884.654 151.754 884.654 167.086V177.779C884.654 193.014 882.311 206.881 877.623 219.381C873.033 231.783 866.393 242.428 857.701 251.314C849.107 260.201 838.854 267.037 826.939 271.822C815.025 276.607 801.793 279 787.242 279ZM763.805 65.7188V279H723.521V65.7188H763.805ZM987.193 281.93C975.182 281.93 964.391 279.977 954.82 276.07C945.25 272.164 937.096 266.744 930.357 259.811C923.717 252.779 918.59 244.625 914.977 235.348C911.461 225.973 909.703 215.914 909.703 205.172V199.312C909.703 187.105 911.461 176.021 914.977 166.061C918.492 156.002 923.473 147.359 929.918 140.133C936.363 132.906 944.078 127.34 953.062 123.434C962.047 119.527 971.959 117.574 982.799 117.574C994.029 117.574 1003.94 119.479 1012.54 123.287C1021.13 126.998 1028.31 132.271 1034.07 139.107C1039.83 145.943 1044.18 154.146 1047.11 163.717C1050.04 173.189 1051.5 183.688 1051.5 195.211V211.471H927.281V184.811H1013.41V181.881C1013.22 175.729 1012.05 170.113 1009.9 165.035C1007.75 159.859 1004.43 155.758 999.938 152.73C995.445 149.605 989.635 148.043 982.506 148.043C976.744 148.043 971.715 149.312 967.418 151.852C963.219 154.293 959.703 157.809 956.871 162.398C954.137 166.891 952.086 172.262 950.719 178.512C949.352 184.762 948.668 191.695 948.668 199.312V205.172C948.668 211.812 949.547 217.965 951.305 223.629C953.16 229.293 955.846 234.225 959.361 238.424C962.975 242.525 967.271 245.748 972.252 248.092C977.33 250.338 983.092 251.461 989.537 251.461C997.643 251.461 1004.97 249.898 1011.51 246.773C1018.15 243.551 1023.91 238.814 1028.79 232.564L1048.28 252.779C1044.96 257.662 1040.46 262.35 1034.8 266.842C1029.23 271.334 1022.5 274.996 1014.59 277.828C1006.68 280.562 997.545 281.93 987.193 281.93ZM1164.59 235.641C1164.59 232.32 1163.71 229.342 1161.95 226.705C1160.19 224.068 1156.87 221.676 1151.99 219.527C1147.2 217.281 1140.17 215.182 1130.89 213.229C1122.69 211.471 1115.12 209.273 1108.19 206.637C1101.26 204 1095.3 200.826 1090.32 197.115C1085.34 193.307 1081.43 188.863 1078.6 183.785C1075.87 178.609 1074.5 172.652 1074.5 165.914C1074.5 159.371 1075.91 153.219 1078.75 147.457C1081.58 141.598 1085.68 136.471 1091.05 132.076C1096.42 127.584 1102.96 124.068 1110.68 121.529C1118.39 118.893 1127.09 117.574 1136.75 117.574C1150.23 117.574 1161.8 119.771 1171.47 124.166C1181.24 128.561 1188.71 134.615 1193.88 142.33C1199.06 149.947 1201.65 158.541 1201.65 168.111H1162.97C1162.97 163.912 1162 160.104 1160.04 156.686C1158.19 153.268 1155.31 150.533 1151.4 148.482C1147.5 146.334 1142.56 145.26 1136.61 145.26C1131.24 145.26 1126.7 146.139 1122.98 147.896C1119.37 149.654 1116.64 151.949 1114.78 154.781C1112.93 157.613 1112 160.738 1112 164.156C1112 166.695 1112.49 168.99 1113.46 171.041C1114.54 172.994 1116.25 174.801 1118.59 176.461C1120.93 178.121 1124.11 179.635 1128.11 181.002C1132.21 182.369 1137.24 183.688 1143.2 184.957C1155.02 187.301 1165.32 190.426 1174.11 194.332C1182.99 198.141 1189.93 203.219 1194.91 209.566C1199.89 215.914 1202.38 224.02 1202.38 233.883C1202.38 240.914 1200.87 247.359 1197.84 253.219C1194.81 258.98 1190.42 264.01 1184.65 268.307C1178.89 272.604 1172.01 275.973 1164 278.414C1155.99 280.758 1146.96 281.93 1136.9 281.93C1122.35 281.93 1110.04 279.342 1099.99 274.166C1089.93 268.893 1082.31 262.252 1077.13 254.244C1071.96 246.139 1069.37 237.74 1069.37 229.049H1106.43C1106.72 235.201 1108.38 240.133 1111.41 243.844C1114.44 247.555 1118.25 250.24 1122.84 251.9C1127.53 253.463 1132.46 254.244 1137.63 254.244C1143.49 254.244 1148.42 253.463 1152.43 251.9C1156.43 250.24 1159.46 248.043 1161.51 245.309C1163.56 242.477 1164.59 239.254 1164.59 235.641ZM1270.49 53.8535V279H1231.82V53.8535H1270.49ZM1369.81 120.504L1300.82 197.994L1263.46 235.934L1251.16 205.904L1280.02 169.576L1323.08 120.504H1369.81ZM1330.26 279L1281.19 205.172L1306.97 180.123L1375.08 279H1330.26Z" fill="#8BC34A"/>
</g>
<circle cx="112" cy="97" r="33" fill="#81F9F1"/>
<circle cx="112" cy="255" r="33" fill="#B6FF94"/>
<circle cx="191" cy="176" r="33" fill="#FB3061"/>
<circle cx="33" cy="176" r="33" fill="#BF40CA"/>
<defs>
<filter id="filter0_d_120_2" x="282.361" y="53.8535" width="1094.72" height="292.549" filterUnits="userSpaceOnUse" color-interpolation-filters="sRGB">
<feFlood flood-opacity="0" result="BackgroundImageFix"/>
<feColorMatrix in="SourceAlpha" type="matrix" values="0 0 0 0 0 0 0 0 0 0 0 0 0 0 0 0 0 0 127 0" result="hardAlpha"/>
<feOffset dy="3"/>
<feGaussianBlur stdDeviation="1"/>
<feComposite in2="hardAlpha" operator="out"/>
<feColorMatrix type="matrix" values="0 0 0 0 0 0 0 0 0 0 0 0 0 0 0 0 0 0 0.25 0"/>
<feBlend mode="normal" in2="BackgroundImageFix" result="effect1_dropShadow_120_2"/>
<feBlend mode="normal" in="SourceGraphic" in2="effect1_dropShadow_120_2" result="shape"/>
</filter>
</defs>
</svg>
